<svg width="85" height="41" viewBox="0 0 85 41" fill="none" xmlns="http://www.w3.org/2000/svg">
<path d="M22.6051 11.4812C21.7942 12.3916 20.5025 13.1131 19.2129 13.0074C19.0425 11.7799 19.6851 10.4651 20.427 9.65016C21.2357 8.72144 22.6503 8.05487 23.7976 8C23.9335 9.28233 23.4008 10.5423 22.6051 11.4812ZM23.7847 13.2492C21.9107 13.1415 20.3019 14.2633 19.4134 14.2633C18.5055 14.2633 17.1448 13.302 15.6633 13.3346C13.7418 13.3569 11.9454 14.3913 10.9685 16.0557C8.93494 19.3662 10.4402 24.2679 12.394 26.9667C13.3493 28.2998 14.4923 29.7609 15.9997 29.7203C17.4251 29.6654 17.9988 28.8322 19.7175 28.8322C21.4578 28.8322 21.9516 29.7203 23.4698 29.6878C25.029 29.6654 26.0167 28.3547 26.972 27.0215C28.061 25.5075 28.5096 24.024 28.5333 23.9509C28.5096 23.9183 25.512 22.8291 25.4905 19.547C25.4668 16.7934 27.8475 15.4826 27.9489 15.4074C26.6119 13.5032 24.5006 13.302 23.7825 13.2512L23.7847 13.2492ZM34.6017 9.52213V29.5496H37.8689V22.7031H42.3867C46.5078 22.7031 49.4062 20.0043 49.4062 16.1085C49.4062 12.2047 46.5661 9.52416 42.4989 9.52416L34.6017 9.52213ZM37.8689 12.1477H41.632C44.4613 12.1477 46.0809 13.5866 46.0809 16.1167C46.0809 18.6468 44.4613 20.0978 41.6104 20.0978H37.8689V12.1477ZM55.356 29.698C57.4112 29.698 59.3089 28.7144 60.1758 27.1455H60.2448V29.5496H63.2639V19.5775C63.2639 16.6999 60.84 14.8282 57.0985 14.8282C53.6394 14.8282 51.0775 16.7223 50.9891 19.3154H53.9198C54.1678 18.0778 55.3582 17.273 57.01 17.273C59.0091 17.273 60.1219 18.1611 60.1219 19.7929V20.8924L56.0569 21.1261C52.2593 21.3476 50.2149 22.8189 50.2149 25.3917C50.2149 27.9848 52.3283 29.7 55.3582 29.7L55.356 29.698ZM56.2445 27.3264C54.502 27.3264 53.3914 26.5318 53.3914 25.3165C53.3914 24.0565 54.4589 23.3148 56.4903 23.1969L60.1197 22.9855V24.1175C60.1197 25.9932 58.4463 27.3264 56.2315 27.3264H56.2445ZM67.2966 35C70.4732 35 71.9698 33.8355 73.2723 30.332L79 15.0274H75.6876L71.8469 26.8488H71.7778L67.9371 15.0274H64.5233L70.0505 29.6024L69.7572 30.4905C69.2504 31.9842 68.4439 32.5634 67.0055 32.5634C66.7467 32.5634 66.2529 32.5329 66.0501 32.5126V34.9167C66.2399 34.9675 67.0508 34.9898 67.2858 34.9898L67.2966 35Z" fill="#8A8A8A"/>
</svg>
