<svg width="8" height="7" viewBox="0 0 8 7" fill="none" xmlns="http://www.w3.org/2000/svg">
<g clip-path="url(#clip0_1_2996)">
<path fill-rule="evenodd" clip-rule="evenodd" d="M0.133208 6.89773C0.205042 6.96339 0.300325 7 0.39939 7C0.498454 7 0.593737 6.96339 0.665571 6.89773L3.77939 4.00533C3.84909 3.94158 3.90459 3.86484 3.94252 3.77979C3.98044 3.69474 4 3.60316 4 3.51061C4 3.41806 3.98044 3.32647 3.94252 3.24142C3.90459 3.15638 3.84909 3.07964 3.77939 3.01588L0.643026 0.102133C0.497572 -0.0326169 0.261936 -0.0343674 0.114299 0.0986329C0.0785557 0.130318 0.049961 0.168738 0.0302907 0.211506C0.0106202 0.254274 0.000294079 0.300478 -4.71021e-05 0.347248C-0.000388045 0.394018 0.00926337 0.440356 0.0283082 0.483386C0.0473531 0.526415 0.0753849 0.565218 0.110663 0.597383L2.98084 3.26333C3.01572 3.29521 3.0435 3.33359 3.06248 3.37613C3.08146 3.41867 3.09125 3.46449 3.09125 3.51078C3.09125 3.55708 3.08146 3.60289 3.06248 3.64543C3.0435 3.68797 3.01572 3.72635 2.98084 3.75823L0.133571 6.40318C0.0987022 6.43503 0.0709343 6.47338 0.0519588 6.51589C0.0329836 6.5584 0.0231979 6.60419 0.0231979 6.65046C0.0231979 6.69673 0.0329836 6.74251 0.0519588 6.78502C0.0709343 6.82753 0.0983386 6.86588 0.133208 6.89773Z" fill="#717171"/>
</g>
<g clip-path="url(#clip1_1_2996)">
<path fill-rule="evenodd" clip-rule="evenodd" d="M4.13321 6.89773C4.20504 6.96339 4.30032 7 4.39939 7C4.49845 7 4.59374 6.96339 4.66557 6.89773L7.77939 4.00533C7.84909 3.94158 7.90459 3.86484 7.94252 3.77979C7.98044 3.69474 8 3.60316 8 3.51061C8 3.41806 7.98044 3.32647 7.94252 3.24142C7.90459 3.15638 7.84909 3.07964 7.77939 3.01588L4.64303 0.102133C4.49757 -0.0326169 4.26194 -0.0343674 4.1143 0.0986329C4.07856 0.130318 4.04996 0.168738 4.03029 0.211506C4.01062 0.254274 4.00029 0.300478 3.99995 0.347248C3.99961 0.394018 4.00926 0.440356 4.02831 0.483386C4.04735 0.526415 4.07538 0.565218 4.11066 0.597383L6.98084 3.26333C7.01572 3.29521 7.0435 3.33359 7.06248 3.37613C7.08146 3.41867 7.09125 3.46449 7.09125 3.51078C7.09125 3.55708 7.08146 3.60289 7.06248 3.64543C7.0435 3.68797 7.01572 3.72635 6.98084 3.75823L4.13357 6.40318C4.0987 6.43503 4.07093 6.47338 4.05196 6.51589C4.03298 6.5584 4.0232 6.60419 4.0232 6.65046C4.0232 6.69673 4.03298 6.74251 4.05196 6.78502C4.07093 6.82753 4.09834 6.86588 4.13321 6.89773Z" fill="#717171"/>
</g>
<defs>
<clipPath id="clip0_1_2996">
<rect width="4" height="7" fill="white" transform="translate(4 7) rotate(-180)"/>
</clipPath>
<clipPath id="clip1_1_2996">
<rect width="4" height="7" fill="white" transform="translate(8 7) rotate(-180)"/>
</clipPath>
</defs>
</svg>
