<svg width="79" height="34" viewBox="0 0 79 34" fill="none" xmlns="http://www.w3.org/2000/svg">
<path d="M0 6.07026C0 2.71962 2.74652 0 6.12616 0H72.8719C76.2515 0 78.998 2.71962 78.998 6.07026V27.7739C78.998 31.1245 76.2604 33.8441 72.8719 33.8441H6.12616C2.74652 33.853 0 31.1334 0 27.7828V6.07026Z" fill="#1D1D1D"/>
<path d="M2.51367 6.2833V27.5781C2.51367 29.6756 4.22579 31.3731 6.33918 31.3731H41.3038V2.48828H6.33918C4.22579 2.48828 2.51367 4.18582 2.51367 6.2833ZM50.3459 16.824C50.3459 18.1839 49.6771 19.1082 48.5624 19.1082C47.5815 19.1082 46.7611 18.175 46.7611 16.9307C46.7611 15.6598 47.4834 14.7088 48.5624 14.7088C49.7038 14.7177 50.3459 15.6953 50.3459 16.824ZM43.8006 24.6007H46.7522V19.9792H46.7879C47.3497 20.9923 48.4643 21.3656 49.4898 21.3656C52.0312 21.3656 53.3867 19.277 53.3867 16.7618C53.3867 14.6999 52.0937 12.4691 49.7306 12.4691C48.3841 12.4691 47.1446 13.0112 46.5471 14.2022H46.5114V12.6646H43.7917V24.6007H43.8006ZM57.4173 18.4683C57.4173 17.6506 58.202 17.3395 59.2007 17.3395C59.6466 17.3395 60.0657 17.3662 60.4491 17.384C60.4491 18.3794 59.7447 19.3926 58.63 19.3926C57.9434 19.4015 57.4173 19.0637 57.4173 18.4683ZM63.374 21.1701C63.2402 20.5035 63.2135 19.8281 63.2135 19.1615V15.9886C63.2135 13.3934 61.3319 12.4602 59.1472 12.4602C57.8899 12.4602 56.7841 12.638 55.7408 13.0646L55.7943 15.0554C56.6147 14.5932 57.5599 14.4155 58.5141 14.4155C59.5752 14.4155 60.4491 14.7266 60.467 15.8908C60.0924 15.8286 59.5663 15.7753 59.0937 15.7753C57.5243 15.7753 54.6886 16.0864 54.6886 18.6816C54.6886 20.5302 56.1956 21.3567 57.881 21.3567C59.0937 21.3567 59.9141 20.8857 60.5829 19.8192H60.6186C60.6186 20.2636 60.6631 20.6991 60.681 21.1612H63.374V21.1701ZM64.6938 24.6007C65.3001 24.734 65.9065 24.7963 66.5307 24.7963C69.2326 24.7963 69.8747 22.7165 70.7129 20.5835L73.8429 12.6646H70.8913L69.1346 18.2194H69.1078L67.2708 12.6646H64.0963L67.5562 21.3745C67.3422 22.13 66.7893 22.5477 66.067 22.5477C65.6568 22.5477 65.3001 22.4944 64.8988 22.3699L64.6938 24.6007Z" fill="#787878"/>
<path d="M9.72047 16.8421C9.72047 15.6778 10.2912 14.718 11.3969 14.718C12.7256 14.718 13.2785 15.7756 13.2785 16.7266C13.2785 18.0331 12.4402 18.9129 11.3969 18.9129C10.5052 18.9129 9.72047 18.1664 9.72047 16.8421ZM16.132 12.656H13.4568V14.1936H13.4301C12.8058 13.1449 11.7893 12.4605 10.5319 12.4605C7.8746 12.4605 6.67969 14.3536 6.67969 16.8865C6.67969 19.4017 8.14212 21.1704 10.4784 21.1704C11.6644 21.1704 12.6453 20.7082 13.3498 19.7128H13.3855V20.175C13.3855 21.837 12.467 22.6368 10.7638 22.6368C9.53321 22.6368 8.77524 22.3791 7.8746 21.9347L7.72301 24.2544C8.40964 24.5033 9.5778 24.7965 10.9867 24.7965C14.4288 24.7965 16.132 23.6678 16.132 20.175V12.656ZM21.1167 9.10986H18.1651V11.2696H21.1167V9.10986ZM18.1651 21.1704H21.1167V12.656H18.1651V21.1704ZM29.3295 12.5583C29.0353 12.5138 28.6697 12.4605 28.3308 12.4605C27.0556 12.4605 26.3155 13.1449 25.8072 14.2291H25.7715V12.6649H23.0875V21.1793H26.0391V17.5887C26.0391 15.9178 26.8149 14.9224 28.1881 14.9224C28.5359 14.9224 28.8569 14.9224 29.1869 15.0201L29.3295 12.5583ZM34.4124 19.304C33.048 19.304 32.4952 18.1753 32.4952 16.9221C32.4952 15.6512 33.048 14.5224 34.4124 14.5224C35.7767 14.5224 36.3296 15.6512 36.3296 16.9221C36.3296 18.1753 35.7678 19.304 34.4124 19.304ZM34.4124 21.3659C37.2302 21.3659 39.3793 19.7306 39.3793 16.9221C39.3793 14.0958 37.2302 12.4605 34.4124 12.4605C31.5945 12.4605 29.4455 14.0958 29.4455 16.9221C29.4455 19.7306 31.5856 21.3659 34.4124 21.3659Z" fill="#424242"/>
</svg>
