<svg width="93" height="65" viewBox="0 0 93 65" fill="none" xmlns="http://www.w3.org/2000/svg">
<path fill-rule="evenodd" clip-rule="evenodd" d="M86.9791 33.1492C87.0911 32.9634 86.9853 32.7773 87.0799 32.4978H93.0006C93.0006 28.3064 91.9134 24.5447 89.7219 21.0444C89.2352 20.2671 88.0526 18.6505 87.4122 18.0051C87.2893 17.8812 87.1892 17.8004 87.0822 17.6664C86.5127 16.9534 84.6407 15.378 83.8684 14.8619C82.4588 13.9201 81.9527 13.5944 80.4739 12.906C77.8413 11.6807 74.8409 10.8638 71.7578 10.8638V16.8227C72.9074 16.8227 74.2415 17.0866 75.1712 17.3116C76.5408 17.6432 78.1625 18.3563 79.3303 19.0605L82.1422 21.2085C83.1299 22.1965 83.5802 22.6788 84.3809 23.8732C86.3304 26.7808 86.979 29.6055 86.979 33.1492H86.9791Z" fill="#393939"/>
<path fill-rule="evenodd" clip-rule="evenodd" d="M86.9786 33.1492C86.9786 34.8623 86.2963 37.5805 85.4922 39.1739C84.7984 40.5487 84.5315 40.9577 83.6814 42.0991L83.256 42.6209C82.9336 42.9822 82.6794 43.2543 82.337 43.5965C81.711 44.2216 81.0174 44.8209 80.277 45.3258L79.7079 45.7041C79.4988 45.8405 79.3247 45.9487 79.1171 46.0608C78.7022 46.285 78.319 46.4856 77.8721 46.7106C77.1044 47.0971 76.0142 47.4958 75.0709 47.6998C74.0752 47.915 72.9319 48.1771 71.7575 48.1771V54.1361C75.2844 54.1361 79.2555 52.9623 82.2014 51.2021C83.3208 50.5331 84.3519 49.8316 85.3453 48.9961L86.0438 48.3571C86.4116 47.9916 86.5837 47.9573 87.082 47.3335L87.7203 46.6345C88.5184 45.6919 89.0525 45.0245 89.7218 43.9556C90.7598 42.2976 91.6756 40.3193 92.2081 38.4195C92.7376 36.5306 93.0004 34.6906 93.0004 32.498H87.0797C86.9851 32.7775 87.0908 32.9636 86.9789 33.1494L86.9786 33.1492ZM32.0598 38.1525C32.8897 38.1525 33.4611 38.4038 33.9984 38.945C34.8074 39.7597 34.7918 40.7416 34.7918 41.7724C34.7918 43.4429 33.8814 45.2219 32.6501 46.1489C30.7487 47.5803 28.1229 47.3605 27.5664 44.8683C27.2087 43.2664 27.7966 41.0163 28.813 39.866C29.6424 38.9276 30.5576 38.1524 32.0598 38.1524V38.1525ZM23.0275 54.1358H25.4249C25.5443 53.6237 26.7072 47.6243 26.7072 47.063C26.7606 47.1245 26.7048 47.0411 26.7783 47.1592L26.9739 47.5206C27.2506 47.9614 27.6526 48.3621 28.1027 48.6207C30.0757 49.754 32.8229 49.1719 34.3872 47.7726L35.0842 47.1321C35.1899 47.0122 35.194 46.9742 35.3071 46.8536C35.9296 46.1894 36.3017 45.5148 36.6719 44.5969C37.7513 41.9198 37.7086 37.6359 34.6179 36.3769C33.575 35.9522 32.2714 35.8604 31.2027 36.1824C29.1554 36.7992 28.4995 38.0947 28.2684 38.2638C28.3503 37.9129 28.4591 37.5393 28.5336 37.192C28.6203 36.7876 28.6813 36.4171 28.7702 36.036C28.2565 35.9166 27.2287 35.9804 26.6514 35.9804C26.3688 35.9804 26.3923 36.4721 26.2937 36.9597L23.0273 54.1357L23.0275 54.1358Z" fill="#4E4E4E"/>
<path fill-rule="evenodd" clip-rule="evenodd" d="M36.6875 17.6027C37.8431 17.6027 38.3397 17.8094 39.1002 18.5899C39.5115 19.0123 39.8364 20.0107 39.8475 20.5817C39.8502 20.7202 39.8637 20.7771 39.6983 20.7771H33.3422C32.946 20.7771 33.5624 19.1041 34.703 18.238C34.8831 18.1012 35.0608 18.0205 35.274 17.9173C35.6365 17.7419 36.1721 17.6027 36.6875 17.6027ZM30.5545 22.2251C30.5545 23.964 31.2061 25.6489 32.3518 26.89L33.2304 27.6273C33.5586 27.8438 33.8636 28.0407 34.2526 28.2215C36.0953 29.078 38.3162 29.0489 40.1771 28.2723C40.7489 28.0336 41.8569 27.454 42.1515 27.0145C42.0012 26.7305 41.8276 26.4577 41.6682 26.1608C41.5482 25.9379 41.304 25.4022 41.148 25.2881C40.9704 25.3354 40.7268 25.6056 40.3856 25.8075C38.882 26.6966 37.3874 27.0566 35.6355 26.3949C34.151 25.8343 33.1193 24.2327 33.1193 22.615H42.1517C42.4001 22.615 42.308 22.3686 42.3238 22.1186C42.3977 20.9551 42.3629 20.2887 41.9641 19.1267C41.7223 18.4218 41.4075 17.8884 40.9895 17.3713C40.2958 16.5129 38.7887 15.6537 37.2452 15.6537C35.1399 15.6537 34.1398 15.9829 32.6092 17.2047C32.0383 17.6604 31.2956 18.858 31.0485 19.5443C30.7877 20.2685 30.5545 21.2323 30.5545 22.2253V22.2251ZM15.5562 26.8474H14.9986C13.1622 26.8474 12.3147 24.5517 13.6198 23.4654C14.0055 23.1443 14.4257 22.978 14.9786 22.8176C15.9195 22.5445 17.4242 22.5034 18.6227 22.5034C18.6227 23.693 18.4721 24.6719 17.7139 25.6054C17.4276 25.958 17.2698 26.1521 16.8509 26.4141C16.56 26.5962 16.004 26.8473 15.5562 26.8473V26.8474ZM11.3746 17.1572L12.3782 18.9392C12.9642 18.6296 12.9895 18.4819 13.8989 18.1192C15.8535 17.3399 18.6228 17.4297 18.6228 20.4429V20.6656C16.4373 20.6656 14.5557 20.7065 12.6932 21.5928C10.6858 22.5482 9.98715 24.716 10.8171 26.5688C11.027 27.0374 11.1732 27.2483 11.5192 27.5939C12.9992 29.0721 15.7043 29.2897 17.3972 28.0736C18.5266 27.2624 18.6323 26.6473 18.8458 26.4017C18.8402 26.6536 18.79 26.6231 18.79 26.903V28.8521H21.076V20.3871C21.076 19.1628 20.6919 17.8426 19.8646 16.9746C19.1991 16.2762 17.8552 15.6533 16.5041 15.6533C15.2868 15.6533 14.4373 15.68 13.2935 16.1221C12.7878 16.3175 11.6262 16.814 11.3746 17.157V17.1572Z" fill="#393939"/>
<path fill-rule="evenodd" clip-rule="evenodd" d="M42.5405 47.1744C41.8992 47.1744 41.4721 47.1826 40.9295 46.7787C40.0001 46.087 39.9678 43.9817 42.5282 43.2636C43.7916 42.9091 44.8614 42.8861 46.4992 42.8861C46.2152 43.4772 46.4967 43.9443 45.1616 45.6711C44.7119 46.2529 43.5465 47.1743 42.5406 47.1743L42.5405 47.1744ZM40.3103 37.3728C40.3103 37.5168 40.8465 39.1056 40.9236 39.2663C41.2954 39.1797 42.6879 38.0968 44.715 38.0968C45.8948 38.0968 46.8894 38.5903 46.8894 39.8231L46.8337 40.9927C45.7713 40.9927 44.4986 41.0537 43.5914 41.2071C42.4941 41.3926 41.7796 41.5803 40.875 41.9466C36.4682 43.7315 36.9753 49.235 41.6484 49.235C42.9368 49.235 44.2548 48.5759 45.1211 47.7472C45.2883 47.5872 45.3471 47.4697 45.5095 47.2997C45.6115 47.1932 45.5955 47.2088 45.6869 47.0871L45.8859 46.8402C45.8524 47.2408 45.4398 48.7753 45.4398 49.2349C47.948 49.2349 47.6644 49.4029 47.7775 48.7854C47.8172 48.5678 47.8541 48.3985 47.8976 48.1814L48.5774 44.6836C48.7042 43.9422 48.8663 43.1178 49.022 42.3433C49.0945 41.9824 49.1648 41.5712 49.245 41.1737C49.5687 39.5709 49.4875 37.9618 48.1252 36.8623C46.6795 35.6958 44.1643 35.8859 42.4085 36.4055C42.0776 36.5034 40.3103 37.1716 40.3103 37.3728Z" fill="#4E4E4E"/>
<path fill-rule="evenodd" clip-rule="evenodd" d="M56.536 28.3512C56.536 28.567 55.7611 30.2286 55.6202 30.4438C54.2128 32.5915 52.536 31.217 52.1871 31.1358L51.3508 32.9736C53.4306 34.3648 56.0654 33.9061 57.4174 31.7935C58.0907 30.7415 59.4483 26.9438 59.9843 25.6139C60.8525 23.46 62.1873 20.2433 62.9413 18.1533C63.0889 17.7443 63.2584 17.3251 63.434 16.919L63.9516 15.6538H61.2752C61.2004 15.8097 61.1107 16.0809 61.0458 16.26L60.3483 18.1251C60.0457 18.972 59.7557 19.7991 59.4354 20.6103C58.9675 21.7947 58.2397 23.7372 57.8675 25.0031L57.6512 25.6782C57.5891 24.9318 55.2867 19.1862 54.887 18.1364L53.9156 15.6538H51.1836C51.2776 16.0569 54.2216 22.8197 54.5209 23.5699L56.5361 28.3513L56.536 28.3512Z" fill="#393939"/>
<path fill-rule="evenodd" clip-rule="evenodd" d="M53.9716 48.7338C53.9716 48.8787 52.8784 50.5928 52.7283 50.7776C51.9874 51.6899 50.8545 52.3308 49.6926 51.8941C49.4731 51.8116 49.2814 51.6724 49.121 51.6297C48.9572 51.7393 48.3864 52.6789 48.2287 52.9104C48.1204 53.0694 48.0118 53.1452 48.0059 53.4118C48.218 53.461 48.2844 53.5495 48.4878 53.6543C49.0365 53.937 49.6727 54.1029 50.3175 54.1358H50.7905C51.35 54.1069 51.9013 53.9747 52.3926 53.728C52.6268 53.6104 52.795 53.5388 53.0007 53.3888C53.1898 53.2509 53.4071 53.1028 53.5681 52.953C54.2682 52.3023 54.7357 51.5669 55.2438 50.7284C55.4979 50.3092 55.7056 49.9208 55.9612 49.4958L60.3454 42.1241C60.4802 41.899 60.5902 41.6975 60.7148 41.4907L63.6348 36.5548C64.0707 35.825 64.3044 35.9804 61.4428 35.9804C61.0908 35.9804 61.066 36.2571 60.9385 36.4792L60.2159 37.7623C59.6975 38.8117 58.8963 40.0564 58.4139 41.0303L56.6299 44.2606C56.4965 44.5282 55.6577 46.1362 55.5328 46.2277C55.5328 45.3526 55.2852 44.4061 55.1286 43.6242C54.9663 42.8133 54.79 41.989 54.6174 41.1273C54.5245 40.6632 53.6371 36.3829 53.6371 36.0362C53.1162 35.9151 51.8464 35.9806 51.2397 35.9806C50.9244 35.9806 51.2592 36.8896 51.3832 37.4523C51.5108 38.0312 51.6125 38.5278 51.7521 39.0886C52.0096 40.1237 52.2509 41.2512 52.5108 42.285L53.6049 47.0954C53.6789 47.4352 53.9716 48.496 53.9716 48.7339V48.7338Z" fill="#4E4E4E"/>
<path fill-rule="evenodd" clip-rule="evenodd" d="M0.390451 18.995C0.390451 20.3986 0.713896 21.1498 1.86351 21.9789C3.44634 23.1204 6.51262 23.6045 6.81193 24.9468C7.1312 26.3783 4.88667 27.6591 1.87737 25.8076C1.75542 25.7325 1.62726 25.64 1.52263 25.5492C1.34108 25.3918 1.383 25.3503 1.1151 25.2879C0.935936 25.5551 0.0507622 26.8245 0 27.0143C0.299676 27.4614 1.44165 28.0571 1.91392 28.2769C4.83197 29.6356 9.36677 28.6363 9.36677 25.1764C9.36677 24.2425 8.96843 23.4654 8.48948 22.9897C7.88714 22.3913 7.83387 22.4064 7.18172 22.0126C5.9301 21.2572 2.8993 20.6913 2.8993 19.3289C2.8993 17.1772 6.27684 17.5438 7.74237 18.6682C7.86337 18.761 7.92631 18.8411 8.08457 18.8833C8.15421 18.5846 8.40443 18.2479 8.54943 17.9554C8.7182 17.6148 8.86667 17.3584 9.03233 17.0456C8.67031 16.8035 8.48446 16.4516 7.47901 16.0911C6.12288 15.605 4.40186 15.4573 3.00345 15.9245C1.69032 16.3631 0.390332 17.411 0.390332 18.9947L0.390451 18.995ZM45.4406 15.6536H43.8795C43.751 15.6536 43.7121 15.6924 43.7121 15.8207V17.6029H45.3849V24.3415C45.3849 27.0335 47.1574 28.8525 50.0125 28.8525L51.0718 28.7968V26.6249C50.7885 26.6249 50.8175 26.6806 50.57 26.6806C48.8045 26.6806 47.8381 25.6602 47.8381 23.8961V17.603H50.8488V15.6539H47.8381V10.8644H45.4406V15.6539V15.6536ZM24.6439 15.041V15.6536H23.1943C23.0659 15.6536 23.0271 15.6924 23.0271 15.8207V17.4358C23.0271 17.5641 23.0659 17.6029 23.1943 17.6029H24.6439V28.8525H27.0415V17.6029H30.0522V15.6537H27.0415C27.0415 13.6291 28.1739 12.9806 29.9965 12.9806C30.4311 12.9806 30.331 13.4599 30.331 10.92C30.0788 10.9143 30.1094 10.8643 29.8292 10.8643H29.1582C28.4924 10.8706 27.9934 10.9178 27.2166 11.2064C25.5911 11.8098 24.6438 13.3527 24.6438 15.0411L24.6439 15.041ZM66.7391 32.4981L78.1132 32.5206C78.0512 32.3868 77.9111 32.2825 77.7865 32.1856L77.085 31.6616C75.6406 30.5802 73.9556 29.1669 72.4575 28.0415C71.9657 27.672 71.5482 27.3048 71.0567 26.9345C70.7959 26.7381 70.5741 26.5875 70.3248 26.3847L68.9265 25.2754C68.729 25.1124 66.9119 23.6636 66.7392 23.6175V32.4982L66.7391 32.4981Z" fill="#393939"/>
<path fill-rule="evenodd" clip-rule="evenodd" d="M78.1124 32.5206L66.7383 32.498V41.3828C66.936 41.33 73.5278 36.1329 73.8673 35.8617L77.052 33.3623C77.2463 33.2143 78.0581 32.6369 78.1124 32.5206Z" fill="#4E4E4E"/>
</svg>
