<svg width="20" height="17" viewBox="0 0 20 17" fill="none" xmlns="http://www.w3.org/2000/svg">
<path fill-rule="evenodd" clip-rule="evenodd" d="M5.81003 10.8808L1.15045 8.9533C0.661095 8.75041 0.350023 8.28233 0.365808 7.77154C0.382523 7.26075 0.721455 6.81136 1.22288 6.63783C4.62424 5.45785 14.9119 1.88765 17.8926 0.852716C18.3439 0.696987 18.8481 0.791316 19.2047 1.09832C19.5612 1.40622 19.7117 1.87697 19.5974 2.32369C18.9345 4.89367 16.8842 12.8474 16.2583 15.275C16.1497 15.6977 15.8182 16.035 15.3855 16.1649C14.9518 16.2957 14.4792 16.1996 14.1384 15.9122L10.9766 13.2505L8.50194 15.5242C8.1463 15.8508 7.63002 15.9567 7.16573 15.7992C6.70238 15.6408 6.37182 15.2457 6.31146 14.7776L5.81003 10.8808ZM14.7819 14.3228L17.8072 2.5862L2.67332 7.83828L6.66804 9.49168C7.09147 9.66699 7.38674 10.0443 7.44339 10.483L7.87982 13.877L9.70817 12.1978L9.54659 12.0643C9.26709 11.8356 9.10275 11.5046 9.09253 11.1531C9.08139 10.8016 9.22717 10.4625 9.49181 10.2187C10.4845 9.30659 13.1327 6.87454 13.1327 6.87454C13.4661 6.56842 13.9954 6.5791 14.3148 6.89857C14.6333 7.21714 14.6222 7.72438 14.2897 8.0305L10.945 11.1033L11.4957 11.5553L14.7819 14.3228Z" fill="white"/>
</svg>
