<svg width="147" height="29" viewBox="0 0 147 29" fill="none" xmlns="http://www.w3.org/2000/svg">
<path fill-rule="evenodd" clip-rule="evenodd" d="M48.3235 28.7743V0.431868H53.5112V28.7743H48.3235ZM89.6066 28.7743V0.431868H94.7943V28.7743H89.6066ZM124.323 5.48223H115.465V28.7743H110.277V5.48223H101.991L99.0519 0.431868H127.466L134.311 13.1363L141.155 0.431868H147L136.924 18.9951L136.883 28.7743H131.697V19.0732L124.322 5.48246L124.323 5.48223ZM15.9654 5.48223V28.7743H10.7777V5.48223H2.62539L-0.189453 0.431868H33.5882C36.1925 0.431868 38.7469 1.05605 40.6701 2.92426C42.5078 4.70912 43.2425 7.01979 43.2425 9.56684C43.2425 11.6865 42.7305 13.7111 41.36 15.3534C40.1356 16.8206 38.5053 17.6782 36.7009 18.1248L44.9433 28.7743H38.5278L30.7475 18.5053H27.1374V28.7743H21.9495V13.7141C25.6737 13.7141 29.3973 13.7701 33.1213 13.7701C34.401 13.7701 35.8231 13.5405 36.8025 12.6356C37.674 11.8306 38.0158 10.7865 38.0158 9.60669C38.0158 8.4378 37.6803 7.3953 36.805 6.59965C35.8226 5.70676 34.3956 5.48269 33.1213 5.48269C27.4026 5.48269 21.6842 5.48269 15.9656 5.48269L15.9654 5.48223ZM66.6143 9.21228L66.5511 28.7741H61.3631V5.482V5.42234L58.4564 0.431641H67.1484L79.7199 20.0494L79.7629 0.431641H84.9509V28.7738H79.1271L66.6141 9.21205L66.6143 9.21228Z" fill="#FEFEFE"/>
</svg>
